<svg width="131" height="25" viewBox="0 0 131 25" fill="none" xmlns="http://www.w3.org/2000/svg">
<path d="M6.73294 6.608C8.07694 6.608 9.19694 6.93867 10.0929 7.6C10.9889 8.26133 11.5809 9.16267 11.8689 10.304H9.94894C9.70361 9.696 9.29827 9.21067 8.73294 8.848C8.17827 8.48533 7.51694 8.304 6.74894 8.304C6.04494 8.304 5.41027 8.46933 4.84494 8.8C4.29027 9.13067 3.85294 9.6 3.53294 10.208C3.2236 10.816 3.06894 11.5307 3.06894 12.352C3.06894 13.216 3.22894 13.9573 3.54894 14.576C3.86894 15.1947 4.31694 15.6693 4.89294 16C5.4796 16.32 6.15694 16.48 6.92494 16.48C7.8636 16.48 8.66894 16.192 9.34094 15.616C10.0129 15.0293 10.4183 14.2293 10.5569 13.216H6.41294V11.872H12.0929V13.616C11.9649 14.448 11.6663 15.2053 11.1969 15.888C10.7383 16.56 10.1249 17.0987 9.35694 17.504C8.5996 17.9093 7.73027 18.112 6.74894 18.112C5.65027 18.112 4.6796 17.8667 3.83694 17.376C2.99427 16.8853 2.3436 16.208 1.88494 15.344C1.42627 14.4693 1.19694 13.472 1.19694 12.352C1.19694 11.232 1.42627 10.24 1.88494 9.376C2.3436 8.50133 2.98894 7.824 3.82094 7.344C4.6636 6.85333 5.63427 6.608 6.73294 6.608ZM22.1319 13.168C22.1319 13.4667 22.1106 13.728 22.0679 13.952H15.2839C15.3159 14.8587 15.5666 15.5307 16.0359 15.968C16.5053 16.4053 17.0866 16.624 17.7799 16.624C18.3879 16.624 18.8999 16.4693 19.3159 16.16C19.7426 15.8507 20.0039 15.44 20.0999 14.928H22.0519C21.9346 15.5467 21.6893 16.096 21.3159 16.576C20.9426 17.056 20.4573 17.4347 19.8599 17.712C19.2626 17.9787 18.5959 18.112 17.8599 18.112C17.0066 18.112 16.2493 17.9307 15.5879 17.568C14.9373 17.2053 14.4253 16.6827 14.0519 16C13.6786 15.3173 13.4919 14.512 13.4919 13.584C13.4919 12.6667 13.6786 11.8667 14.0519 11.184C14.4253 10.5013 14.9373 9.97867 15.5879 9.616C16.2493 9.25333 17.0066 9.072 17.8599 9.072C18.7239 9.072 19.4759 9.25333 20.1159 9.616C20.7666 9.968 21.2626 10.4587 21.6039 11.088C21.9559 11.7067 22.1319 12.4 22.1319 13.168ZM20.2919 13.12C20.3133 12.544 20.2119 12.064 19.9879 11.68C19.7746 11.2853 19.4759 10.9973 19.0919 10.816C18.7186 10.624 18.3079 10.528 17.8599 10.528C17.1453 10.528 16.5479 10.7467 16.0679 11.184C15.5879 11.6213 15.3266 12.2667 15.2839 13.12H20.2919ZM28.3251 16.416V18H27.2051C26.2664 18 25.5517 17.776 25.0611 17.328C24.5811 16.8693 24.3411 16.112 24.3411 15.056V10.736H23.0771V9.184H24.3411V6.992H26.1811V9.184H28.3091V10.736H26.1811V15.088C26.1811 15.5893 26.2717 15.936 26.4531 16.128C26.6451 16.32 26.9757 16.416 27.4451 16.416H28.3251ZM44.8077 9.04C45.853 9.04 46.685 9.37067 47.3037 10.032C47.933 10.6933 48.2477 11.6373 48.2477 12.864V18H46.4237V13.056C46.4237 12.288 46.2317 11.696 45.8477 11.28C45.4637 10.8533 44.9357 10.64 44.2637 10.64C43.549 10.64 42.9784 10.8693 42.5517 11.328C42.1357 11.776 41.9277 12.4373 41.9277 13.312V18H40.1037V13.056C40.1037 12.288 39.9117 11.696 39.5277 11.28C39.1437 10.8533 38.6157 10.64 37.9437 10.64C37.229 10.64 36.6584 10.8693 36.2317 11.328C35.8157 11.776 35.6077 12.4373 35.6077 13.312V18H33.7837V9.184H35.6077V11.024C35.8317 10.384 36.205 9.89333 36.7277 9.552C37.2504 9.21067 37.8637 9.04 38.5677 9.04C39.3037 9.04 39.9384 9.22133 40.4717 9.584C41.0157 9.94667 41.4104 10.4693 41.6557 11.152C41.9117 10.4907 42.3224 9.97333 42.8877 9.6C43.453 9.22667 44.093 9.04 44.8077 9.04ZM51.4174 9.184L54.0574 15.664L56.5054 9.184H58.5374L53.2094 22.192H51.1774L53.0814 17.792L49.3694 9.184H51.4174ZM68.5268 6.592C69.9135 6.592 71.0655 6.944 71.9828 7.648C72.9001 8.352 73.5188 9.30667 73.8388 10.512H71.9028C71.6361 9.82933 71.2095 9.29067 70.6228 8.896C70.0468 8.49067 69.3375 8.288 68.4948 8.288C67.8228 8.288 67.2201 8.45333 66.6868 8.784C66.1641 9.11467 65.7481 9.58933 65.4388 10.208C65.1401 10.816 64.9908 11.5307 64.9908 12.352C64.9908 13.1627 65.1401 13.8773 65.4388 14.496C65.7481 15.104 66.1641 15.5733 66.6868 15.904C67.2201 16.2347 67.8228 16.4 68.4948 16.4C69.3375 16.4 70.0468 16.2027 70.6228 15.808C71.2095 15.4027 71.6361 14.864 71.9028 14.192H73.8388C73.5188 15.3973 72.9001 16.352 71.9828 17.056C71.0655 17.7493 69.9135 18.096 68.5268 18.096C67.4601 18.096 66.5161 17.856 65.6948 17.376C64.8735 16.8853 64.2388 16.208 63.7908 15.344C63.3428 14.4693 63.1188 13.472 63.1188 12.352C63.1188 11.232 63.3428 10.24 63.7908 9.376C64.2388 8.50133 64.8735 7.81867 65.6948 7.328C66.5161 6.83733 67.4601 6.592 68.5268 6.592ZM76.7947 6.704L80.0427 16.048L83.3067 6.704H85.2907L81.2107 18H78.8747L74.8107 6.704H76.7947Z" fill="white"/>
<path d="M106 6V24H130V6" stroke="white" stroke-width="2"/>
<path d="M118.662 13.9624L122.91 9.71441L124.324 11.1286L117.662 17.7909L111 11.1286L112.414 9.71441L116.662 13.9625V2.52881e-07L118.662 0V13.9624Z" fill="white"/>
</svg>
