<svg width="16" height="24" viewBox="0 0 16 24" fill="none" xmlns="http://www.w3.org/2000/svg">
<path d="M13.2296 10.3758C14.1431 10.5164 14.7755 10.938 15.1268 11.5001C15.4782 12.0623 15.689 13.046 15.689 14.3108C15.689 16.8405 14.916 18.9485 13.3701 20.5647C11.8243 22.1808 9.85676 23.024 7.46765 23.024C6.55417 23.024 5.64069 22.8835 4.72721 22.5322C3.81373 22.1808 3.11105 21.689 2.47864 21.1268C1.77596 20.4944 1.21382 19.7215 0.86248 19.0188C0.581409 18.2458 0.370605 17.4729 0.370605 16.6999C0.370605 15.8567 0.581409 15.1541 0.932748 14.6622C1.28409 14.1703 1.9165 13.8892 2.68944 13.6784C2.54891 13.3271 2.40837 13.046 2.3381 12.7649C2.26784 12.5541 2.19757 12.3433 2.19757 12.2028C2.19757 11.7812 2.40837 11.2893 2.90025 10.7974C3.39212 10.3056 3.81373 10.0948 4.23533 10.0948C4.44614 10.0948 4.58667 10.0948 4.79748 10.165C5.00828 10.2353 5.21908 10.3056 5.50015 10.5164C4.86774 8.40834 4.23533 6.65165 3.88399 5.4571C3.53266 4.26255 3.39212 3.4896 3.39212 2.99773C3.39212 2.36532 3.53266 1.87344 3.88399 1.5221C4.16507 1.17076 4.65694 0.959961 5.21908 0.959961C6.13256 0.959961 7.32712 3.06799 8.80274 7.35433C9.08381 8.05701 9.22434 8.61915 9.36488 9.04075C9.50542 8.75968 9.64595 8.26781 9.85675 7.70567C11.3324 3.4896 12.5972 1.38157 13.5809 1.38157C14.0728 1.38157 14.4944 1.5221 14.8458 1.87344C15.1268 2.22478 15.3376 2.71666 15.3376 3.2788C15.3376 3.7004 15.1971 4.54362 14.8458 5.73817C14.4242 6.93272 13.9323 8.47861 13.2296 10.3758ZM2.40837 16.5594C2.54891 16.6999 2.75971 16.981 2.97051 17.3324C3.60292 18.2458 4.23533 18.7377 4.79748 18.7377C5.00828 18.7377 5.14881 18.6674 5.28935 18.5269C5.42989 18.3864 5.50015 18.2458 5.50015 18.1756C5.50015 18.035 5.42988 17.754 5.21908 17.4026C5.00828 17.0513 4.72721 16.6297 4.37587 16.2081C3.95426 15.7162 3.60292 15.2946 3.39212 15.0838C3.11105 14.873 2.90025 14.7324 2.75971 14.7324C2.40837 14.7324 2.05703 14.9432 1.77596 15.2946C1.49489 15.6459 1.35435 16.1378 1.35435 16.6297C1.35435 17.0513 1.42462 17.4729 1.63543 18.035C1.84623 18.5269 2.1273 19.089 2.54891 19.5809C3.18132 20.2836 3.88399 20.916 4.79748 21.3376C5.71096 21.7592 6.62444 21.97 7.74872 21.97C9.71622 21.97 11.3324 21.2673 12.6675 19.7917C14.0026 18.3161 14.635 16.4891 14.635 14.2406C14.635 13.5379 14.5647 13.046 14.4944 12.6244C14.4242 12.2028 14.2134 11.9217 14.0026 11.7812C13.5809 11.4299 12.808 11.1488 11.6134 10.8677C10.4189 10.5866 9.15408 10.4461 7.88926 10.4461C7.53792 10.4461 7.25685 10.5164 7.11631 10.6569C6.97578 10.7974 6.90551 11.0083 6.90551 11.2893C6.90551 11.992 7.25685 12.4839 8.02979 12.7649C8.80274 13.046 10.0676 13.2568 11.754 13.2568H12.3864C12.5269 13.2568 12.6675 13.3271 12.7377 13.3974C12.808 13.5379 12.8783 13.6784 12.8783 13.8892C12.7377 14.0298 12.3864 14.2406 11.8243 14.4514C11.2621 14.6622 10.9108 14.873 10.6297 15.0838C9.99729 15.5054 9.50542 16.0675 9.15408 16.6999C8.80274 17.3324 8.59194 17.8945 8.59194 18.4566C8.59194 18.808 8.6622 19.1593 8.80274 19.6512C8.94327 20.1431 9.01354 20.4241 9.01354 20.4944V20.6349V20.7755C8.59194 20.7755 8.2406 20.4944 7.95953 20.0025C7.67845 19.5107 7.60819 18.8782 7.60819 18.035V17.8945C7.53792 17.9648 7.46765 18.035 7.39738 18.035C7.32712 18.035 7.25685 18.1053 7.11631 18.1053H6.83524C6.76497 18.1053 6.69471 18.035 6.55417 18.035C6.55417 18.1756 6.62444 18.2458 6.62444 18.3864V18.6674C6.62444 19.0188 6.4839 19.3701 6.20283 19.6512C5.92176 19.9323 5.57042 20.0728 5.14881 20.0728C4.5164 20.0728 3.88399 19.7917 3.18132 19.1593C2.54891 18.5269 2.19757 17.9648 2.19757 17.3324C2.19757 17.1918 2.19757 17.1215 2.26784 17.0513C2.26784 16.6999 2.3381 16.6297 2.40837 16.5594ZM6.97578 16.9107C7.11631 16.9107 7.32712 16.8405 7.46765 16.6999C7.60819 16.5594 7.67845 16.3486 7.67845 16.2081C7.67845 15.9973 7.53792 15.5757 7.25685 14.873C6.97578 14.1703 6.62444 13.4676 6.20283 12.8352C5.92176 12.3433 5.57042 11.9217 5.28935 11.7109C5.00828 11.4299 4.72721 11.3596 4.44614 11.3596C4.23533 11.3596 4.02453 11.5001 3.74346 11.7812C3.46239 12.0623 3.39212 12.2731 3.39212 12.5541C3.39212 12.7649 3.53266 13.1866 3.74346 13.6784C4.02453 14.1703 4.3056 14.6622 4.72721 15.2243C5.14881 15.7865 5.57042 16.2783 5.99203 16.6297C6.41363 16.7702 6.69471 16.9107 6.97578 16.9107ZM8.4514 9.6029L6.76497 4.89496C6.34337 3.7004 6.0623 2.85719 5.78122 2.50585C5.57042 2.15451 5.35962 1.94371 5.07855 1.94371C4.86774 1.94371 4.72721 2.01398 4.58667 2.15451C4.37587 2.36532 4.3056 2.57612 4.3056 2.85719C4.3056 3.34907 4.5164 4.12201 4.86774 5.24629C5.21908 6.37058 5.78122 7.91647 6.4839 9.74343C6.55417 9.6029 6.62444 9.53263 6.76497 9.53263C6.90551 9.46236 7.04604 9.46236 7.18658 9.46236H7.53792C7.74872 9.53263 8.02979 9.53263 8.4514 9.6029ZM10.1378 14.1703C9.71622 14.1703 9.29461 14.1 8.87301 14.0298C8.4514 13.9595 8.10006 13.8892 7.74872 13.7487C7.88926 14.1 8.02979 14.3811 8.17033 14.7324C8.31086 15.0838 8.38113 15.3649 8.4514 15.7162C8.6622 15.4351 8.94327 15.1541 9.22435 14.873C9.57568 14.5919 9.85675 14.3811 10.1378 14.1703ZM12.1756 10.0948C12.8783 8.26781 13.3701 6.72192 13.7917 5.52737C14.1431 4.33281 14.3539 3.63014 14.3539 3.34907C14.3539 3.06799 14.2836 2.85719 14.1431 2.64639C14.0026 2.50585 13.862 2.43558 13.6512 2.43558C13.3701 2.43558 13.0891 2.64639 12.808 3.13826C12.5269 3.63014 12.1756 4.33281 11.8243 5.38683L10.2784 9.74343L12.1756 10.0948Z" fill="white"/>
</svg>
