<svg width="24" height="20" viewBox="0 0 24 20" fill="none" xmlns="http://www.w3.org/2000/svg">
<path d="M22.085 2.733L24 0.901V0.5H17.366L12.638 12.268L7.259 0.5H0.303V0.901L2.54 3.594C2.758 3.793 2.872 4.084 2.843 4.377V14.96C2.912 15.341 2.788 15.733 2.52 16.01L0 19.064V19.46H7.145V19.059L4.625 16.01C4.352 15.732 4.223 15.347 4.278 14.96V5.806L10.55 19.465H11.279L16.672 5.806V16.687C16.672 16.974 16.672 17.033 16.484 17.221L14.544 19.098V19.5H23.956V19.099L22.086 17.268C21.922 17.144 21.837 16.936 21.872 16.734V3.267C21.837 3.064 21.921 2.856 22.085 2.733Z" fill="white"/>
</svg>
