<svg width="106" height="389" viewBox="0 0 106 389" fill="none" xmlns="http://www.w3.org/2000/svg">
<path d="M7.12001 388.38C7.19335 386.84 7.26668 384.823 7.34001 382.33C7.41334 379.837 7.45001 377.38 7.45001 374.96C7.45001 371.513 7.41334 368.213 7.34001 365.06C7.26668 361.907 7.23001 359.67 7.23001 358.35C7.23001 349.477 9.24668 342.84 13.28 338.44C17.3133 334.04 22.52 331.84 28.9 331.84C31.54 331.84 34.3267 332.28 37.26 333.16C40.12 334.04 42.7967 335.58 45.29 337.78C47.71 339.907 49.69 342.84 51.23 346.58C52.77 350.32 53.54 355.05 53.54 360.77L53.54 371.33L51.34 371.33L51.34 361.87C51.34 356.663 50.35 352.703 48.37 349.99C46.39 347.203 43.7867 345.333 40.56 344.38C37.3333 343.353 33.85 342.84 30.11 342.84C23.1433 342.84 17.9367 344.233 14.49 347.02C11.0433 349.733 9.32001 354.427 9.32001 361.1C9.32001 364.473 9.94335 366.673 11.19 367.7C12.4367 368.727 14.9667 369.24 18.78 369.24L73.34 369.24C75.98 369.24 77.96 368.983 79.28 368.47C80.6 367.883 81.48 366.783 81.92 365.17C82.36 363.557 82.6533 361.21 82.8 358.13L85 358.13C84.8533 360.037 84.78 362.457 84.78 365.39C84.7067 368.323 84.67 371.293 84.67 374.3C84.67 377.16 84.7067 379.837 84.78 382.33C84.78 384.823 84.8533 386.84 85 388.38L82.8 388.38C82.6533 385.887 82.36 384.017 81.92 382.77C81.48 381.45 80.6 380.57 79.28 380.13C77.96 379.69 75.98 379.47 73.34 379.47L18.78 379.47C16.0667 379.47 14.0867 379.69 12.84 380.13C11.52 380.57 10.64 381.45 10.2 382.77C9.68668 384.017 9.39334 385.887 9.32001 388.38L7.12001 388.38ZM26.81 291.254C26.81 289.274 27.2133 287.551 28.02 286.084C28.8267 284.544 29.89 283.371 31.21 282.564C32.4567 281.684 33.8867 281.244 35.5 281.244C37.3333 281.244 38.9467 281.831 40.34 283.004C41.7333 284.104 42.43 285.608 42.43 287.514C42.43 289.054 41.9533 290.411 41 291.584C39.9733 292.758 38.5433 293.344 36.71 293.344C35.3167 293.344 34.1433 292.978 33.19 292.244C32.1633 291.438 31.3567 290.558 30.77 289.604C30.0367 290.118 29.67 290.888 29.67 291.914C29.67 294.994 30.8433 297.671 33.19 299.944C35.4633 302.218 38.2133 304.014 41.44 305.334C44.6667 306.581 47.6367 307.204 50.35 307.204L73.67 307.204C77.2633 307.204 79.6833 306.178 80.93 304.124C82.1033 301.998 82.69 299.138 82.69 295.544L85 295.544C84.9267 297.231 84.8533 299.614 84.78 302.694C84.6333 305.774 84.56 309.038 84.56 312.484C84.56 314.978 84.6333 317.471 84.78 319.964C84.8533 322.384 84.9267 324.218 85 325.464L82.69 325.464C82.69 322.458 82.14 320.331 81.04 319.084C79.94 317.764 77.85 317.104 74.77 317.104L40.34 317.104C37.04 317.104 34.62 317.691 33.08 318.864C31.4667 320.038 30.66 322.238 30.66 325.464L28.35 325.464C28.57 323.118 28.68 320.844 28.68 318.644C28.68 316.518 28.57 314.501 28.35 312.594C28.0567 310.614 27.6533 308.818 27.14 307.204L40.89 307.204C38.7633 306.398 36.6367 305.261 34.51 303.794C32.31 302.254 30.4767 300.421 29.01 298.294C27.5433 296.168 26.81 293.821 26.81 291.254ZM26.81 251.678C26.81 246.985 27.8367 242.768 29.89 239.028C31.9433 235.288 35.17 232.318 39.57 230.118C43.97 227.845 49.69 226.708 56.73 226.708C63.77 226.708 69.49 227.845 73.89 230.118C78.2167 232.318 81.4067 235.288 83.46 239.028C85.5133 242.768 86.54 246.985 86.54 251.678C86.54 256.298 85.5133 260.515 83.46 264.328C81.4067 268.068 78.2167 271.075 73.89 273.348C69.49 275.548 63.77 276.648 56.73 276.648C49.69 276.648 43.97 275.548 39.57 273.348C35.17 271.075 31.9433 268.068 29.89 264.328C27.8367 260.515 26.81 256.298 26.81 251.678ZM29.01 251.678C29.01 255.858 31.1733 259.305 35.5 262.018C39.8267 264.658 46.9033 265.978 56.73 265.978C66.5567 265.978 73.6333 264.658 77.96 262.018C82.2133 259.305 84.34 255.858 84.34 251.678C84.34 247.498 82.2133 244.088 77.96 241.448C73.6333 238.735 66.5567 237.378 56.73 237.378C46.9033 237.378 39.8267 238.735 35.5 241.448C31.1733 244.088 29.01 247.498 29.01 251.678ZM105.68 224.415L104.03 224.415C103.81 219.868 101.83 216.458 98.09 214.185C94.4233 211.911 89.3633 210.775 82.91 210.775L40.34 210.775C37.04 210.775 34.62 211.361 33.08 212.535C31.4667 213.708 30.66 215.908 30.66 219.135L28.35 219.135C28.57 216.788 28.68 214.515 28.68 212.315C28.68 210.188 28.57 208.171 28.35 206.265C28.0567 204.285 27.6533 202.488 27.14 200.875L72.35 200.875C77.85 200.875 82.91 201.498 87.53 202.745C92.15 203.918 95.9633 205.935 98.97 208.795C100.95 210.628 102.563 212.901 103.81 215.615C105.057 218.255 105.68 221.188 105.68 224.415ZM0.850002 206.815C0.850002 204.908 1.54667 203.258 2.94 201.865C4.33333 200.471 5.98333 199.775 7.89 199.775C9.79667 199.775 11.4467 200.471 12.84 201.865C14.2333 203.258 14.93 204.908 14.93 206.815C14.93 208.721 14.2333 210.371 12.84 211.765C11.4467 213.158 9.79667 213.855 7.89 213.855C5.98334 213.855 4.33333 213.158 2.94 211.765C1.54667 210.371 0.850002 208.721 0.850002 206.815ZM26.81 162.309C26.81 155.855 28.79 150.832 32.75 147.239C36.6367 143.572 42.7233 141.739 51.01 141.739L51.01 180.569L48.92 180.679L48.92 152.299C45.3267 152.152 42.0267 152.445 39.02 153.179C35.94 153.912 33.4833 155.085 31.65 156.699C29.8167 158.239 28.9 160.255 28.9 162.749C28.9 166.122 30.5867 169.129 33.96 171.769C37.3333 174.335 42.6867 175.875 50.02 176.389L50.46 176.059C51.56 176.205 52.77 176.315 54.09 176.389C55.41 176.462 56.73 176.499 58.05 176.499C63.0367 176.499 67.3267 175.692 70.92 174.079C74.5133 172.465 77.2633 170.375 79.17 167.809C81.0033 165.169 81.92 162.455 81.92 159.669C81.92 156.369 81.1133 153.325 79.5 150.539C77.8867 147.752 75.0267 145.405 70.92 143.499L71.8 141.299C74.22 142.105 76.5667 143.425 78.84 145.259C81.1133 147.092 82.9833 149.402 84.45 152.189C85.8433 154.975 86.54 158.202 86.54 161.869C86.54 167.149 85.33 171.695 82.91 175.509C80.49 179.249 77.1533 182.145 72.9 184.199C68.5733 186.179 63.6233 187.169 58.05 187.169C51.5967 187.169 46.06 186.142 41.44 184.089C36.7467 182.035 33.1533 179.139 30.66 175.399C28.0933 171.659 26.81 167.295 26.81 162.309ZM26.81 105.894C26.81 103.547 27.1033 101.274 27.69 99.074C28.2767 96.874 29.1567 94.894 30.33 93.134C31.43 91.4473 32.7133 90.164 34.18 89.284C35.5733 88.404 37.1133 87.964 38.8 87.964C40.78 87.964 42.32 88.514 43.42 89.614C44.4467 90.714 44.96 92.1073 44.96 93.794C44.96 95.4073 44.4833 96.8373 43.53 98.084C42.5767 99.2573 41.22 99.844 39.46 99.844C37.7733 99.844 36.4167 99.404 35.39 98.524C34.3633 97.5706 33.7033 96.4706 33.41 95.224C32.09 95.9573 30.99 97.2773 30.11 99.184C29.23 101.017 28.79 102.997 28.79 105.124C28.79 106.957 29.23 108.791 30.11 110.624C30.99 112.457 32.4567 114.144 34.51 115.684C36.49 117.224 39.24 118.471 42.76 119.424C46.2067 120.377 50.5333 120.854 55.74 120.854C62.1933 120.854 67.3267 120.121 71.14 118.654C74.9533 117.187 77.7033 115.281 79.39 112.934C81.0033 110.514 81.81 107.874 81.81 105.014C81.81 102.154 80.9667 99.2573 79.28 96.324C77.5933 93.3906 74.66 90.9706 70.48 89.064L71.25 86.974C73.5967 87.7073 75.98 88.9173 78.4 90.604C80.7467 92.2906 82.69 94.4906 84.23 97.204C85.77 99.9173 86.54 103.254 86.54 107.214C86.54 111.761 85.3667 115.867 83.02 119.534C80.6733 123.201 77.3367 126.134 73.01 128.334C68.61 130.461 63.4033 131.524 57.39 131.524C51.3767 131.524 46.0967 130.461 41.55 128.334C36.93 126.134 33.3367 123.091 30.77 119.204C28.13 115.317 26.81 110.881 26.81 105.894ZM10.09 62.1879L28.46 62.1879L28.46 45.9079L30.66 45.9079L30.66 62.1879L73.23 62.1879C76.6767 62.1879 79.0967 61.5646 80.49 60.3179C81.8833 59.0712 82.58 57.3479 82.58 55.1479C82.58 52.9479 81.7 51.0412 79.94 49.4279C78.1067 47.8146 75.0633 46.4212 70.81 45.2479L71.36 43.0479C75.6133 43.7812 79.2067 45.2479 82.14 47.4479C85.0733 49.5746 86.54 52.8746 86.54 57.3479C86.54 59.8412 86.21 61.8946 85.55 63.5079C84.9633 65.1212 84.0833 66.5512 82.91 67.7979C81.2233 69.4112 79.2067 70.5479 76.86 71.2079C74.5133 71.7946 71.3967 72.0879 67.51 72.0879L30.66 72.0879L30.66 82.6479L28.46 82.6479L28.46 72.0879L11.63 72.0879C11.5567 70.2546 11.41 68.4946 11.19 66.8079C10.97 65.1212 10.6033 63.5812 10.09 62.1879ZM26.81 21.3212C26.81 18.3878 27.2867 15.8945 28.24 13.8412C29.1933 11.7878 30.0733 10.2845 30.88 9.33117C32.86 6.91117 31.54 5.4445 26.92 4.93117L26.92 2.40117C28.9733 2.54783 31.43 2.65783 34.29 2.73117C37.0767 2.8045 40.8533 2.84117 45.62 2.84117L45.62 5.37117C42.9067 5.81117 40.2667 6.58117 37.7 7.68117C35.1333 8.70783 33.0433 10.2478 31.43 12.3012C29.7433 14.3545 28.9 17.0312 28.9 20.3312C28.9 22.8978 29.6333 25.0612 31.1 26.8212C32.4933 28.5078 34.5833 29.3512 37.37 29.3512C39.57 29.3512 41.4767 28.6912 43.09 27.3712C44.63 26.0512 46.0967 24.3278 47.49 22.2012C48.81 20.0745 50.2767 17.7645 51.89 15.2712C54.6033 11.0912 57.3533 7.5345 60.14 4.60117C62.9267 1.66783 66.5933 0.201168 71.14 0.201167C74.5133 0.201167 77.3367 1.08117 79.61 2.84117C81.8833 4.60116 83.6067 6.91116 84.78 9.77116C85.9533 12.5578 86.54 15.6378 86.54 19.0112C86.54 20.6245 86.3933 22.1645 86.1 23.6312C85.88 25.0245 85.5133 26.3812 85 27.7012C84.6333 28.4345 84.1933 29.2045 83.68 30.0112C83.1667 30.7445 82.6167 31.4778 82.03 32.2112C81.4433 32.9445 81.48 33.6045 82.14 34.1912C82.7267 34.7778 83.9367 35.2178 85.77 35.5112L85.77 38.0412C83.4233 37.8945 80.5633 37.7845 77.19 37.7112C73.8167 37.6378 69.3433 37.6012 63.77 37.6012L63.77 35.0712C67.8767 34.5578 71.47 33.8245 74.55 32.8712C77.63 31.9178 80.05 30.4145 81.81 28.3612C83.4967 26.3078 84.34 23.4478 84.34 19.7812C84.34 17.5812 83.57 15.4178 82.03 13.2912C80.49 11.0912 77.7767 9.99117 73.89 9.99117C70.6633 9.99117 68.0233 11.1645 65.97 13.5112C63.9167 15.8578 61.7533 18.8278 59.48 22.4212C57.7933 25.0612 56.1067 27.5545 54.42 29.9012C52.7333 32.1745 50.8267 34.0445 48.7 35.5112C46.5733 36.9045 44.0067 37.6012 41 37.6012C37.7 37.6012 35.0233 36.8678 32.97 35.4012C30.8433 33.8612 29.3033 31.8445 28.35 29.3512C27.3233 26.8578 26.81 24.1812 26.81 21.3212Z" fill="#1A2236"/>
<path d="M7.12001 388.38L6.12115 388.332L6.07126 389.38L7.12001 389.38L7.12001 388.38ZM7.34001 382.33L8.33958 382.359L7.34001 382.33ZM7.34001 365.06L6.34028 365.083L7.34001 365.06ZM13.28 338.44L14.0172 339.116L13.28 338.44ZM37.26 333.16L37.5541 332.204L37.5474 332.202L37.26 333.16ZM45.29 337.78L44.6284 338.53L44.6299 338.531L45.29 337.78ZM53.54 371.33L53.54 372.33L54.54 372.33L54.54 371.33L53.54 371.33ZM51.34 371.33L50.34 371.33L50.34 372.33L51.34 372.33L51.34 371.33ZM48.37 349.99L47.5548 350.569L47.5622 350.579L48.37 349.99ZM40.56 344.38L40.2568 345.333L40.2667 345.336L40.2767 345.339L40.56 344.38ZM14.49 347.02L15.1086 347.806L15.1187 347.798L14.49 347.02ZM11.19 367.7L11.8257 366.928L11.8257 366.928L11.19 367.7ZM79.28 368.47L79.6425 369.402L79.6645 369.393L79.6862 369.384L79.28 368.47ZM81.92 365.17L80.9553 364.907L80.9553 364.907L81.92 365.17ZM82.8 358.13L82.8 357.13L81.8465 357.13L81.8011 358.082L82.8 358.13ZM85 358.13L85.9971 358.207L86.0799 357.13L85 357.13L85 358.13ZM84.78 365.39L85.7797 365.415L85.78 365.402L85.78 365.39L84.78 365.39ZM84.78 382.33L85.78 382.33L85.78 382.315L85.7796 382.301L84.78 382.33ZM85 388.38L85 389.38L86.0998 389.38L85.9955 388.285L85 388.38ZM82.8 388.38L81.8017 388.439L81.8571 389.38L82.8 389.38L82.8 388.38ZM81.92 382.77L80.9713 383.086L80.9741 383.095L80.977 383.103L81.92 382.77ZM79.28 380.13L78.9638 381.079L79.28 380.13ZM12.84 380.13L13.1562 381.079L13.1646 381.076L13.1728 381.073L12.84 380.13ZM10.2 382.77L11.1247 383.151L11.1378 383.119L11.1487 383.086L10.2 382.77ZM9.32001 388.38L9.32001 389.38L10.291 389.38L10.3196 388.409L9.32001 388.38ZM8.11888 388.428C8.19262 386.879 8.26616 384.856 8.33958 382.359L6.34044 382.301C6.2672 384.791 6.19407 386.801 6.12115 388.332L8.11888 388.428ZM8.33958 382.359C8.41319 379.857 8.45001 377.39 8.45001 374.96L6.45001 374.96C6.45001 377.37 6.4135 379.817 6.34044 382.301L8.33958 382.359ZM8.45001 374.96C8.45001 371.506 8.41327 368.199 8.33974 365.037L6.34028 365.083C6.41342 368.228 6.45001 371.52 6.45001 374.96L8.45001 374.96ZM8.33974 365.037C8.26641 361.884 8.23001 359.657 8.23001 358.35L6.23001 358.35C6.23001 359.683 6.26695 361.93 6.34028 365.083L8.33974 365.037ZM8.23001 358.35C8.23001 349.608 10.2191 343.259 14.0172 339.116L12.5429 337.764C8.27426 342.421 6.23001 349.346 6.23001 358.35L8.23001 358.35ZM14.0172 339.116C17.8469 334.938 22.7786 332.84 28.9 332.84L28.9 330.84C22.2614 330.84 16.7798 333.142 12.5429 337.764L14.0172 339.116ZM28.9 332.84C31.4286 332.84 34.118 333.261 36.9727 334.118L37.5474 332.202C34.5354 331.299 31.6514 330.84 28.9 330.84L28.9 332.84ZM36.9659 334.116C39.6758 334.95 42.2296 336.413 44.6284 338.53L45.9516 337.03C43.3637 334.747 40.5643 333.13 37.5541 332.204L36.9659 334.116ZM44.6299 338.531C46.9087 340.534 48.8093 343.328 50.3053 346.961L52.1547 346.199C50.5707 342.352 48.5113 339.28 45.9501 337.029L44.6299 338.531ZM50.3053 346.961C51.7796 350.541 52.54 355.131 52.54 360.77L54.54 360.77C54.54 354.969 53.7605 350.099 52.1547 346.199L50.3053 346.961ZM52.54 360.77L52.54 371.33L54.54 371.33L54.54 360.77L52.54 360.77ZM53.54 370.33L51.34 370.33L51.34 372.33L53.54 372.33L53.54 370.33ZM52.34 371.33L52.34 361.87L50.34 361.87L50.34 371.33L52.34 371.33ZM52.34 361.87C52.34 356.56 51.3345 352.356 49.1778 349.401L47.5622 350.579C49.3656 353.051 50.34 356.766 50.34 361.87L52.34 361.87ZM49.1852 349.411C47.0777 346.445 44.2885 344.439 40.8434 343.421L40.2767 345.339C43.2848 346.228 45.7023 347.962 47.5548 350.569L49.1852 349.411ZM40.8632 343.427C37.5288 342.366 33.9422 341.84 30.11 341.84L30.11 343.84C33.7578 343.84 37.1379 344.341 40.2568 345.333L40.8632 343.427ZM30.11 341.84C23.0377 341.84 17.5626 343.25 13.8613 346.242L15.1187 347.798C18.3108 345.217 23.249 343.84 30.11 343.84L30.11 341.84ZM13.8715 346.234C10.0796 349.219 8.32001 354.283 8.32001 361.1L10.32 361.1C10.32 354.57 12.0071 350.247 15.1086 347.806L13.8715 346.234ZM8.32001 361.1C8.32001 362.84 8.47974 364.333 8.82538 365.553C9.17031 366.77 9.72096 367.786 10.5543 368.472L11.8257 366.928C11.4124 366.588 11.0281 365.99 10.7496 365.007C10.4719 364.027 10.32 362.734 10.32 361.1L8.32001 361.1ZM10.5543 368.472C11.3578 369.134 12.4843 369.563 13.8237 369.835C15.1771 370.11 16.835 370.24 18.78 370.24L18.78 368.24C16.9117 368.24 15.398 368.114 14.2214 367.875C13.0307 367.633 12.2688 367.293 11.8257 366.928L10.5543 368.472ZM18.78 370.24L73.34 370.24L73.34 368.24L18.78 368.24L18.78 370.24ZM73.34 370.24C76.0158 370.24 78.1462 369.984 79.6425 369.402L78.9176 367.538C77.7738 367.983 75.9442 368.24 73.34 368.24L73.34 370.24ZM79.6862 369.384C81.3257 368.655 82.3797 367.285 82.8848 365.433L80.9553 364.907C80.5803 366.282 79.8744 367.112 78.8739 367.556L79.6862 369.384ZM82.8848 365.433C83.3538 363.714 83.6511 361.28 83.7989 358.178L81.8011 358.082C81.6556 361.14 81.3663 363.4 80.9553 364.907L82.8848 365.433ZM82.8 359.13L85 359.13L85 357.13L82.8 357.13L82.8 359.13ZM84.003 358.053C83.8536 359.995 83.78 362.443 83.78 365.39L85.78 365.39C85.78 362.47 85.8531 360.078 85.9971 358.207L84.003 358.053ZM83.7803 365.365C83.7068 368.307 83.67 371.285 83.67 374.3L85.67 374.3C85.67 371.301 85.7066 368.34 85.7797 365.415L83.7803 365.365ZM83.67 374.3C83.67 377.168 83.7068 379.855 83.7804 382.359L85.7796 382.301C85.7066 379.818 85.67 377.152 85.67 374.3L83.67 374.3ZM83.78 382.33C83.78 384.838 83.8536 386.89 84.0045 388.475L85.9955 388.285C85.8531 386.79 85.78 384.808 85.78 382.33L83.78 382.33ZM85 387.38L82.8 387.38L82.8 389.38L85 389.38L85 387.38ZM83.7983 388.321C83.6501 385.802 83.3506 383.819 82.863 382.437L80.977 383.103C81.3694 384.215 81.6566 385.972 81.8017 388.439L83.7983 388.321ZM82.8687 382.454C82.3292 380.835 81.2149 379.721 79.5962 379.181L78.9638 381.079C79.9852 381.419 80.6309 382.065 80.9713 383.086L82.8687 382.454ZM79.5962 379.181C78.1199 378.689 76.0092 378.47 73.34 378.47L73.34 380.47C75.9508 380.47 77.8001 380.691 78.9638 381.079L79.5962 379.181ZM73.34 378.47L18.78 378.47L18.78 380.47L73.34 380.47L73.34 378.47ZM18.78 378.47C16.0468 378.47 13.923 378.687 12.5072 379.187L13.1728 381.073C14.2503 380.693 16.0866 380.47 18.78 380.47L18.78 378.47ZM12.5238 379.181C10.9052 379.721 9.79086 380.835 9.25133 382.454L11.1487 383.086C11.4892 382.065 12.1348 381.419 13.1562 381.079L12.5238 379.181ZM9.27534 382.389C8.69215 383.806 8.39484 385.821 8.32044 388.351L10.3196 388.409C10.3919 385.952 10.6812 384.228 11.1247 383.151L9.27534 382.389ZM9.32001 387.38L7.12001 387.38L7.12001 389.38L9.32001 389.38L9.32001 387.38ZM28.02 286.084L28.8962 286.566L28.9011 286.557L28.9058 286.548L28.02 286.084ZM31.21 282.564L31.7315 283.418L31.7597 283.4L31.7867 283.381L31.21 282.564ZM40.34 283.004L39.6959 283.769L39.708 283.779L39.7204 283.789L40.34 283.004ZM41 291.584L41.7526 292.243L41.7646 292.229L41.7761 292.215L41 291.584ZM33.19 292.244L32.5722 293.031L32.5803 293.037L33.19 292.244ZM30.77 289.604L31.6217 289.08L31.0657 288.177L30.1965 288.785L30.77 289.604ZM33.19 299.944L33.8971 299.237L33.8915 299.232L33.8858 299.226L33.19 299.944ZM41.44 305.334L41.0614 306.26L41.0705 306.264L41.0796 306.267L41.44 305.334ZM80.93 304.124L81.7848 304.643L81.7956 304.626L81.8056 304.607L80.93 304.124ZM82.69 295.544L82.69 294.544L81.69 294.544L81.69 295.544L82.69 295.544ZM85 295.544L85.9991 295.588L86.0444 294.544L85 294.544L85 295.544ZM84.78 302.694L85.7789 302.742L85.7794 302.73L85.7797 302.718L84.78 302.694ZM84.78 319.964L85.7796 319.934L85.7791 319.92L85.7783 319.906L84.78 319.964ZM85 325.464L85 326.464L86.0606 326.464L85.9983 325.406L85 325.464ZM82.69 325.464L81.69 325.464L81.69 326.464L82.69 326.464L82.69 325.464ZM81.04 319.084L80.2718 319.724L80.2808 319.735L80.2902 319.746L81.04 319.084ZM33.08 318.864L33.6682 319.673L33.6772 319.666L33.6861 319.66L33.08 318.864ZM30.66 325.464L30.66 326.464L31.66 326.464L31.66 325.464L30.66 325.464ZM28.35 325.464L27.3544 325.371L27.2519 326.464L28.35 326.464L28.35 325.464ZM28.35 312.594L29.3434 312.48L29.3416 312.464L29.3392 312.448L28.35 312.594ZM27.14 307.204L27.14 306.204L25.7724 306.204L26.1871 307.507L27.14 307.204ZM40.89 307.204L40.89 308.204L41.2447 306.269L40.89 307.204ZM34.51 303.794L33.9365 304.614L33.9423 304.618L34.51 303.794ZM29.01 298.294L29.8332 297.727L29.8332 297.727L29.01 298.294ZM27.81 291.254C27.81 289.412 28.1844 287.86 28.8962 286.566L27.1438 285.602C26.2422 287.242 25.81 289.137 25.81 291.254L27.81 291.254ZM28.9058 286.548C29.6392 285.148 30.5844 284.119 31.7315 283.418L30.6886 281.711C29.1956 282.623 28.0142 283.94 27.1342 285.62L28.9058 286.548ZM31.7867 283.381C32.8547 282.627 34.0807 282.244 35.5 282.244L35.5 280.244C33.6927 280.244 32.0587 280.741 30.6333 281.747L31.7867 283.381ZM35.5 282.244C37.0993 282.244 38.4841 282.749 39.6959 283.769L40.9841 282.239C39.4092 280.913 37.5674 280.244 35.5 280.244L35.5 282.244ZM39.7204 283.789C40.8537 284.684 41.43 285.888 41.43 287.514L43.43 287.514C43.43 285.328 42.613 283.525 40.9597 282.219L39.7204 283.789ZM41.43 287.514C41.43 288.829 41.0295 289.962 40.2239 290.954L41.7761 292.215C42.8772 290.86 43.43 289.279 43.43 287.514L41.43 287.514ZM40.2474 290.926C39.4446 291.843 38.3108 292.344 36.71 292.344L36.71 294.344C38.7759 294.344 40.5021 293.672 41.7526 292.243L40.2474 290.926ZM36.71 292.344C35.5008 292.344 34.5514 292.03 33.7997 291.452L32.5803 293.037C33.7353 293.925 35.1326 294.344 36.71 294.344L36.71 292.344ZM33.8078 291.458C32.8588 290.712 32.1371 289.918 31.6217 289.08L29.9183 290.128C30.5762 291.197 31.4679 292.163 32.5722 293.031L33.8078 291.458ZM30.1965 288.785C29.1535 289.515 28.67 290.617 28.67 291.914L30.67 291.914C30.67 291.159 30.9198 290.72 31.3435 290.424L30.1965 288.785ZM28.67 291.914C28.67 295.283 29.9663 298.214 32.4942 300.663L33.8858 299.226C31.7204 297.128 30.67 294.706 30.67 291.914L28.67 291.914ZM32.4829 300.651C34.8578 303.026 37.7223 304.894 41.0614 306.26L41.8186 304.409C38.7044 303.135 36.0689 301.409 33.8971 299.237L32.4829 300.651ZM41.0796 306.267C44.391 307.546 47.4847 308.204 50.35 308.204L50.35 306.204C47.7886 306.204 44.9423 305.615 41.8004 304.401L41.0796 306.267ZM50.35 308.204L73.67 308.204L73.67 306.204L50.35 306.204L50.35 308.204ZM73.67 308.204C77.4259 308.204 80.2773 307.126 81.7848 304.643L80.0752 303.605C79.0894 305.229 77.1008 306.204 73.67 306.204L73.67 308.204ZM81.8056 304.607C83.0904 302.279 83.69 299.231 83.69 295.544L81.69 295.544C81.69 299.044 81.1163 301.717 80.0544 303.641L81.8056 304.607ZM82.69 296.544L85 296.544L85 294.544L82.69 294.544L82.69 296.544ZM84.001 295.501C83.9272 297.197 83.8537 299.588 83.7803 302.67L85.7797 302.718C85.853 299.64 85.9262 297.265 85.9991 295.588L84.001 295.501ZM83.7811 302.647C83.6336 305.744 83.56 309.024 83.56 312.484L85.56 312.484C85.56 309.052 85.633 305.804 85.7789 302.742L83.7811 302.647ZM83.56 312.484C83.56 314.997 83.6339 317.51 83.7817 320.023L85.7783 319.906C85.6328 317.432 85.56 314.958 85.56 312.484L83.56 312.484ZM83.7805 319.995C83.8539 322.417 83.9275 324.262 84.0017 325.523L85.9983 325.406C85.9258 324.173 85.8528 322.352 85.7796 319.934L83.7805 319.995ZM85 324.464L82.69 324.464L82.69 326.464L85 326.464L85 324.464ZM83.69 325.464C83.69 322.39 83.1385 319.951 81.7899 318.423L80.2902 319.746C81.1416 320.711 81.69 322.525 81.69 325.464L83.69 325.464ZM81.8082 318.444C80.4116 316.768 77.9254 316.104 74.77 316.104L74.77 318.104C77.7746 318.104 79.4684 318.76 80.2718 319.724L81.8082 318.444ZM74.77 316.104L40.34 316.104L40.34 318.104L74.77 318.104L74.77 316.104ZM40.34 316.104C36.9603 316.104 34.2734 316.698 32.474 318.069L33.6861 319.66C34.9666 318.684 37.1197 318.104 40.34 318.104L40.34 316.104ZM32.4918 318.056C30.4924 319.51 29.66 322.117 29.66 325.464L31.66 325.464C31.66 322.358 32.441 320.566 33.6682 319.673L32.4918 318.056ZM30.66 324.464L28.35 324.464L28.35 326.464L30.66 326.464L30.66 324.464ZM29.3456 325.558C29.5683 323.182 29.68 320.878 29.68 318.644L27.68 318.644C27.68 320.811 27.5717 323.053 27.3544 325.371L29.3456 325.558ZM29.68 318.644C29.68 316.483 29.5682 314.428 29.3434 312.48L27.3566 312.709C27.5718 314.574 27.68 316.552 27.68 318.644L29.68 318.644ZM29.3392 312.448C29.0394 310.424 28.6252 308.574 28.0929 306.901L26.1871 307.507C26.6815 309.061 27.074 310.805 27.3608 312.741L29.3392 312.448ZM27.14 308.204L40.89 308.204L40.89 306.204L27.14 306.204L27.14 308.204ZM41.2447 306.269C39.2026 305.495 37.1469 304.398 35.0777 302.971L33.9423 304.618C36.1264 306.124 38.3241 307.301 40.5354 308.139L41.2447 306.269ZM35.0835 302.975C32.9771 301.501 31.2296 299.751 29.8332 297.727L28.1868 298.862C29.7237 301.091 31.6429 303.008 33.9365 304.614L35.0835 302.975ZM29.8332 297.727C28.4809 295.766 27.81 293.617 27.81 291.254L25.81 291.254C25.81 294.025 26.6058 296.57 28.1868 298.862L29.8332 297.727ZM29.89 239.028L29.0134 238.547L29.89 239.028ZM39.57 230.118L40.0173 231.013L40.029 231.007L39.57 230.118ZM73.89 230.118L73.431 231.007L73.4368 231.01L73.89 230.118ZM83.46 239.028L84.3366 238.547L83.46 239.028ZM83.46 264.328L84.3366 264.81L84.3405 264.802L83.46 264.328ZM73.89 273.348L74.3372 274.243L74.3462 274.238L74.3551 274.234L73.89 273.348ZM39.57 273.348L39.1109 274.237L39.1228 274.243L39.57 273.348ZM29.89 264.328L29.0095 264.802L29.0134 264.81L29.89 264.328ZM35.5 262.018L34.9687 262.866L34.9791 262.872L35.5 262.018ZM77.96 262.018L78.4809 262.872L78.4894 262.867L78.4978 262.861L77.96 262.018ZM77.96 241.448L77.4287 242.296L77.4326 242.298L77.96 241.448ZM35.5 241.448L36.0209 242.302L36.0313 242.296L35.5 241.448ZM27.81 251.678C27.81 247.136 28.8021 243.088 30.7666 239.51L29.0134 238.547C26.8712 242.449 25.81 246.834 25.81 251.678L27.81 251.678ZM30.7666 239.51C32.7077 235.974 35.7703 233.136 40.0172 231.013L39.1228 229.224C34.5697 231.5 31.1789 234.603 29.0134 238.547L30.7666 239.51ZM40.029 231.007C44.2401 228.831 49.7867 227.708 56.73 227.708L56.73 225.708C49.5933 225.708 43.6999 226.859 39.111 229.23L40.029 231.007ZM56.73 227.708C63.6733 227.708 69.2199 228.831 73.431 231.007L74.349 229.23C69.7601 226.859 63.8667 225.708 56.73 225.708L56.73 227.708ZM73.4368 231.01C77.6098 233.132 80.6397 235.969 82.5834 239.51L84.3366 238.547C82.1736 234.607 78.8235 231.505 74.3433 229.227L73.4368 231.01ZM82.5834 239.51C84.5479 243.088 85.54 247.136 85.54 251.678L87.54 251.678C87.54 246.834 86.4788 242.449 84.3366 238.547L82.5834 239.51ZM85.54 251.678C85.54 256.144 84.5492 260.196 82.5795 263.854L84.3405 264.802C86.4775 260.834 87.54 256.452 87.54 251.678L85.54 251.678ZM82.5834 263.847C80.6378 267.391 77.6037 270.267 73.4249 272.463L74.3551 274.234C78.8296 271.883 82.1755 268.746 84.3366 264.81L82.5834 263.847ZM73.4428 272.454C69.2284 274.561 63.6771 275.648 56.73 275.648L56.73 277.648C63.8629 277.648 69.7517 276.536 74.3372 274.243L73.4428 272.454ZM56.73 275.648C49.7829 275.648 44.2317 274.561 40.0172 272.454L39.1228 274.243C43.7084 276.536 49.5971 277.648 56.73 277.648L56.73 275.648ZM40.029 272.46C35.7764 270.263 32.7096 267.386 30.7666 263.847L29.0134 264.81C31.177 268.75 34.5636 271.887 39.111 274.237L40.029 272.46ZM30.7705 263.854C28.8008 260.196 27.81 256.144 27.81 251.678L25.81 251.678C25.81 256.452 26.8725 260.834 29.0095 264.802L30.7705 263.854ZM28.01 251.678C28.01 256.282 30.4251 260.016 34.9687 262.866L36.0313 261.171C31.9215 258.594 30.01 255.434 30.01 251.678L28.01 251.678ZM34.9791 262.872C39.5515 265.662 46.8631 266.978 56.73 266.978L56.73 264.978C46.9436 264.978 40.1018 263.655 36.0209 261.165L34.9791 262.872ZM56.73 266.978C66.5969 266.978 73.9085 265.662 78.4809 262.872L77.4391 261.165C73.3582 263.655 66.5165 264.978 56.73 264.978L56.73 266.978ZM78.4978 262.861C82.9702 260.008 85.34 256.274 85.34 251.678L83.34 251.678C83.34 255.442 81.4565 258.602 77.4222 261.175L78.4978 262.861ZM85.34 251.678C85.34 247.08 82.9669 243.379 78.4874 240.599L77.4326 242.298C81.4598 244.798 83.34 247.917 83.34 251.678L85.34 251.678ZM78.4913 240.601C73.9158 237.732 66.5992 236.378 56.73 236.378L56.73 238.378C66.5141 238.378 73.3509 239.738 77.4287 242.296L78.4913 240.601ZM56.73 236.378C46.8608 236.378 39.5442 237.732 34.9687 240.601L36.0313 242.296C40.1091 239.738 46.9459 238.378 56.73 238.378L56.73 236.378ZM34.9791 240.595C30.4285 243.371 28.01 247.071 28.01 251.678L30.01 251.678C30.01 247.925 31.9181 244.805 36.0209 242.302L34.9791 240.595ZM105.68 224.415L105.68 225.415L106.68 225.415L106.68 224.415L105.68 224.415ZM104.03 224.415L103.031 224.463L103.077 225.415L104.03 225.415L104.03 224.415ZM98.09 214.185L97.563 215.035L97.5706 215.039L98.09 214.185ZM33.08 212.535L33.6682 213.343L33.6772 213.337L33.686 213.33L33.08 212.535ZM30.66 219.135L30.66 220.135L31.66 220.135L31.66 219.135L30.66 219.135ZM28.35 219.135L27.3544 219.041L27.2519 220.135L28.35 220.135L28.35 219.135ZM28.35 206.265L29.3434 206.15L29.3416 206.134L29.3392 206.118L28.35 206.265ZM27.14 200.875L27.14 199.875L25.7724 199.875L26.1871 201.178L27.14 200.875ZM87.53 202.745L87.2695 203.71L87.2767 203.712L87.2839 203.714L87.53 202.745ZM98.97 208.795L98.2807 209.519L98.2906 209.528L98.97 208.795ZM103.81 215.615L102.901 216.032L102.906 216.042L103.81 215.615ZM2.94 201.865L3.64711 202.572L2.94 201.865ZM12.84 201.865L12.1329 202.572L12.84 201.865ZM105.68 223.415L104.03 223.415L104.03 225.415L105.68 225.415L105.68 223.415ZM105.029 224.366C104.794 219.504 102.646 215.784 98.6094 213.33L97.5706 215.039C101.014 217.132 102.826 220.232 103.031 224.463L105.029 224.366ZM98.617 213.335C94.7321 210.926 89.4634 209.775 82.91 209.775L82.91 211.775C89.2632 211.775 94.1146 212.897 97.5631 215.035L98.617 213.335ZM82.91 209.775L40.34 209.775L40.34 211.775L82.91 211.775L82.91 209.775ZM40.34 209.775C36.9603 209.775 34.2734 210.368 32.474 211.739L33.686 213.33C34.9666 212.354 37.1197 211.775 40.34 211.775L40.34 209.775ZM32.4918 211.726C30.4924 213.18 29.66 215.788 29.66 219.135L31.66 219.135C31.66 216.029 32.441 214.236 33.6682 213.343L32.4918 211.726ZM30.66 218.135L28.35 218.135L28.35 220.135L30.66 220.135L30.66 218.135ZM29.3456 219.228C29.5683 216.853 29.68 214.548 29.68 212.315L27.68 212.315C27.68 214.481 27.5717 216.724 27.3544 219.041L29.3456 219.228ZM29.68 212.315C29.68 210.154 29.5682 208.099 29.3434 206.15L27.3566 206.379C27.5718 208.244 27.68 210.222 27.68 212.315L29.68 212.315ZM29.3392 206.118C29.0394 204.094 28.6252 202.244 28.0929 200.571L26.1871 201.178C26.6815 202.732 27.074 204.475 27.3608 206.411L29.3392 206.118ZM27.14 201.875L72.35 201.875L72.35 199.875L27.14 199.875L27.14 201.875ZM72.35 201.875C77.7748 201.875 82.746 202.49 87.2695 203.71L87.7905 201.779C83.074 200.507 77.9252 199.875 72.35 199.875L72.35 201.875ZM87.2839 203.714C91.7626 204.851 95.4158 206.794 98.2808 209.519L99.6592 208.07C96.5108 205.075 92.5374 202.985 87.7762 201.775L87.2839 203.714ZM98.2906 209.528C100.164 211.263 101.704 213.426 102.901 216.032L104.719 215.197C103.423 212.377 101.736 209.993 99.6494 208.061L98.2906 209.528ZM102.906 216.042C104.083 218.535 104.68 221.32 104.68 224.415L106.68 224.415C106.68 221.056 106.03 217.975 104.714 215.188L102.906 216.042ZM1.85 206.815C1.85 205.183 2.4343 203.785 3.64711 202.572L2.23289 201.158C0.659038 202.731 -0.149998 204.633 -0.149998 206.815L1.85 206.815ZM3.64711 202.572C4.85992 201.359 6.25831 200.775 7.89 200.775L7.89 198.775C5.70836 198.775 3.80675 199.584 2.23289 201.158L3.64711 202.572ZM7.89 200.775C9.5217 200.775 10.9201 201.359 12.1329 202.572L13.5471 201.158C11.9733 199.584 10.0716 198.775 7.89 198.775L7.89 200.775ZM12.1329 202.572C13.3457 203.785 13.93 205.183 13.93 206.815L15.93 206.815C15.93 204.633 15.121 202.731 13.5471 201.158L12.1329 202.572ZM13.93 206.815C13.93 208.446 13.3457 209.845 12.1329 211.058L13.5471 212.472C15.121 210.898 15.93 208.996 15.93 206.815L13.93 206.815ZM12.1329 211.058C10.9201 212.27 9.5217 212.855 7.89 212.855L7.89 214.855C10.0716 214.855 11.9733 214.046 13.5471 212.472L12.1329 211.058ZM7.89 212.855C6.25831 212.855 4.85992 212.27 3.64711 211.058L2.23289 212.472C3.80675 214.046 5.70836 214.855 7.89 214.855L7.89 212.855ZM3.64711 211.058C2.4343 209.845 1.85 208.446 1.85 206.815L-0.149998 206.815C-0.149998 208.996 0.659038 210.898 2.23289 212.472L3.64711 211.058ZM32.75 147.239L33.422 147.979L33.4292 147.973L33.4362 147.966L32.75 147.239ZM51.01 141.739L52.01 141.739L52.01 140.739L51.01 140.739L51.01 141.739ZM51.01 180.569L51.0626 181.567L52.01 181.517L52.01 180.569L51.01 180.569ZM48.92 180.679L47.92 180.679L47.92 181.733L48.9726 181.677L48.92 180.679ZM48.92 152.299L49.92 152.299L49.92 151.338L48.9608 151.299L48.92 152.299ZM39.02 153.179L39.2516 154.151L39.257 154.15L39.02 153.179ZM31.65 156.699L32.2932 157.464L32.302 157.457L32.3106 157.449L31.65 156.699ZM33.96 171.769L33.3436 172.556L33.3545 172.564L33.96 171.769ZM50.02 176.389L49.9502 177.386L50.3219 177.412L50.62 177.189L50.02 176.389ZM50.46 176.059L50.5922 175.067L50.187 175.013L49.86 175.259L50.46 176.059ZM70.92 174.079L70.5104 173.166L70.92 174.079ZM79.17 167.809L79.9727 168.405L79.9823 168.392L79.9914 168.379L79.17 167.809ZM79.5 150.539L78.6346 151.04L79.5 150.539ZM70.92 143.499L69.9915 143.127L69.6397 144.007L70.4989 144.406L70.92 143.499ZM71.8 141.299L72.1162 140.35L71.2217 140.052L70.8715 140.927L71.8 141.299ZM78.84 145.259L79.4678 144.48L78.84 145.259ZM84.45 152.189L85.3444 151.741L85.3398 151.732L85.3349 151.723L84.45 152.189ZM82.91 175.509L83.7496 176.052L83.7543 176.044L82.91 175.509ZM72.9 184.199L73.3161 185.108L73.3255 185.104L73.3348 185.099L72.9 184.199ZM41.44 184.089L41.8461 183.175L41.8408 183.172L41.44 184.089ZM30.66 175.399L31.4921 174.844L31.4845 174.833L30.66 175.399ZM27.81 162.309C27.81 156.074 29.7136 151.344 33.422 147.979L32.078 146.498C27.8664 150.32 25.81 155.636 25.81 162.309L27.81 162.309ZM33.4362 147.966C37.0577 144.549 42.8426 142.739 51.01 142.739L51.01 140.739C42.604 140.739 36.2156 142.594 32.0638 146.511L33.4362 147.966ZM50.01 141.739L50.01 180.569L52.01 180.569L52.01 141.739L50.01 141.739ZM50.9574 179.57L48.8674 179.68L48.9726 181.677L51.0626 181.567L50.9574 179.57ZM49.92 180.679L49.92 152.299L47.92 152.299L47.92 180.679L49.92 180.679ZM48.9608 151.299C45.2888 151.149 41.8938 151.448 38.783 152.207L39.257 154.15C42.1595 153.442 45.3646 153.154 48.8792 153.298L48.9608 151.299ZM38.7884 152.206C35.5951 152.966 32.9764 154.199 30.9894 155.948L32.3106 157.449C33.9903 155.971 36.2849 154.858 39.2516 154.151L38.7884 152.206ZM31.0068 155.933C28.9368 157.672 27.9 159.974 27.9 162.749L29.9 162.749C29.9 160.537 30.6966 158.805 32.2932 157.464L31.0068 155.933ZM27.9 162.749C27.9 166.51 29.7997 169.782 33.3437 172.556L34.5763 170.981C31.3736 168.475 29.9 165.734 29.9 162.749L27.9 162.749ZM33.3545 172.564C36.9596 175.307 42.5483 176.868 49.9502 177.386L50.0898 175.391C42.825 174.882 37.7071 173.363 34.5655 170.973L33.3545 172.564ZM50.62 177.189L51.06 176.859L49.86 175.259L49.42 175.589L50.62 177.189ZM50.3278 177.05C51.4576 177.2 52.6936 177.312 54.0345 177.387L54.1455 175.39C52.8464 175.318 51.6625 175.21 50.5922 175.067L50.3278 177.05ZM54.0345 177.387C55.373 177.461 56.7115 177.499 58.05 177.499L58.05 175.499C56.7485 175.499 55.447 175.462 54.1455 175.39L54.0345 177.387ZM58.05 177.499C63.1416 177.499 67.578 176.675 71.3296 174.991L70.5104 173.166C67.0753 174.709 62.9318 175.499 58.05 175.499L58.05 177.499ZM71.3296 174.991C75.043 173.324 77.9431 171.137 79.9727 168.405L78.3673 167.212C76.5836 169.613 73.9836 171.607 70.5104 173.166L71.3296 174.991ZM79.9914 168.379C81.9226 165.598 82.92 162.689 82.92 159.669L80.92 159.669C80.92 162.221 80.0841 164.739 78.3486 167.238L79.9914 168.379ZM82.92 159.669C82.92 156.197 82.0692 152.98 80.3654 150.037L78.6346 151.04C80.1575 153.67 80.92 156.54 80.92 159.669L82.92 159.669ZM80.3654 150.037C78.6151 147.014 75.5609 144.551 71.3411 142.592L70.4989 144.406C74.4924 146.26 77.1583 148.49 78.6346 151.04L80.3654 150.037ZM71.8485 143.87L72.7285 141.67L70.8715 140.927L69.9915 143.127L71.8485 143.87ZM71.4838 142.247C73.7755 143.011 76.0185 144.268 78.2123 146.037L79.4678 144.48C77.1148 142.583 74.6645 141.199 72.1162 140.35L71.4838 142.247ZM78.2123 146.037C80.3714 147.778 82.1569 149.979 83.5651 152.654L85.3349 151.723C83.8098 148.825 81.8553 146.406 79.4678 144.48L78.2123 146.037ZM83.5556 152.636C84.8682 155.261 85.54 158.33 85.54 161.869L87.54 161.869C87.54 158.074 86.8185 154.689 85.3444 151.741L83.5556 152.636ZM85.54 161.869C85.54 166.991 84.3678 171.345 82.0657 174.973L83.7543 176.044C86.2922 172.045 87.54 167.306 87.54 161.869L85.54 161.869ZM82.0704 174.965C79.7561 178.542 76.5638 181.319 72.4653 183.298L73.3348 185.099C77.7429 182.971 81.2239 179.955 83.7496 176.052L82.0704 174.965ZM72.4839 183.289C68.3083 185.2 63.5041 186.169 58.05 186.169L58.05 188.169C63.7426 188.169 68.8384 187.157 73.3161 185.108L72.4839 183.289ZM58.05 186.169C51.6993 186.169 46.3081 185.158 41.8461 183.175L41.0339 185.002C45.8119 187.126 51.494 188.169 58.05 188.169L58.05 186.169ZM41.8408 183.172C37.2977 181.185 33.8649 178.403 31.4921 174.844L29.828 175.953C32.4417 179.874 36.1956 182.886 41.0392 185.005L41.8408 183.172ZM31.4845 174.833C29.0435 171.276 27.81 167.114 27.81 162.309L25.81 162.309C25.81 167.476 27.1432 172.041 29.8355 175.964L31.4845 174.833ZM30.33 93.134L31.1621 93.6887L31.1676 93.6802L30.33 93.134ZM34.18 89.284L34.6945 90.1415L34.7043 90.1356L34.714 90.1295L34.18 89.284ZM43.42 89.614L44.1511 88.9317L44.1393 88.9191L44.1271 88.9069L43.42 89.614ZM43.53 98.084L44.3061 98.7146L44.3154 98.7031L44.3244 98.6914L43.53 98.084ZM35.39 98.524L34.7095 99.2568L34.7241 99.2703L34.7392 99.2832L35.39 98.524ZM33.41 95.224L34.3834 94.9949L34.0805 93.7075L32.9244 94.3498L33.41 95.224ZM30.11 99.184L31.0115 99.6167L31.0148 99.6099L31.018 99.603L30.11 99.184ZM30.11 110.624L31.0115 110.191L30.11 110.624ZM34.51 115.684L35.1239 114.895L35.117 114.889L35.11 114.884L34.51 115.684ZM42.76 119.424L43.0266 118.46L43.0214 118.459L42.76 119.424ZM71.14 118.654L71.499 119.587L71.14 118.654ZM79.39 112.934L80.202 113.518L80.2123 113.503L80.2221 113.489L79.39 112.934ZM79.28 96.324L80.1469 95.8255L79.28 96.324ZM70.48 89.064L69.5417 88.7183L69.2209 89.5888L70.065 89.9738L70.48 89.064ZM71.25 86.974L71.5483 86.0195L70.6405 85.7358L70.3117 86.6283L71.25 86.974ZM78.4 90.604L78.9836 89.792L78.9777 89.7877L78.9718 89.7836L78.4 90.604ZM83.02 119.534L83.8623 120.073L83.02 119.534ZM73.01 128.334L73.4452 129.234L73.4543 129.23L73.4633 129.225L73.01 128.334ZM41.55 128.334L41.1201 129.237L41.1263 129.24L41.55 128.334ZM30.77 119.204L31.6045 118.653L31.5972 118.642L30.77 119.204ZM27.81 105.894C27.81 103.632 28.0927 101.445 28.6562 99.3316L26.7238 98.8163C26.114 101.103 25.81 103.463 25.81 105.894L27.81 105.894ZM28.6562 99.3316C29.2169 97.2292 30.0539 95.351 31.1621 93.6887L29.4979 92.5793C28.2595 94.437 27.3365 96.5187 26.7238 98.8163L28.6562 99.3316ZM31.1676 93.6802C32.1994 92.0981 33.3788 90.9309 34.6945 90.1415L33.6655 88.4265C32.0479 89.3971 30.6606 90.7965 29.4924 92.5877L31.1676 93.6802ZM34.714 90.1295C35.9436 89.3529 37.2977 88.964 38.8 88.964L38.8 86.964C36.929 86.964 35.2031 87.4551 33.646 88.4385L34.714 90.1295ZM38.8 88.964C40.5907 88.964 41.8481 89.4563 42.7129 90.3211L44.1271 88.9069C42.7919 87.5717 40.9693 86.964 38.8 86.964L38.8 88.964ZM42.6889 90.2963C43.5214 91.1883 43.96 92.3275 43.96 93.794L45.96 93.794C45.96 91.8871 45.3719 90.2397 44.1511 88.9317L42.6889 90.2963ZM43.96 93.794C43.96 95.1944 43.5516 96.4095 42.7356 97.4765L44.3244 98.6914C45.415 97.2652 45.96 95.6203 45.96 93.794L43.96 93.794ZM42.7539 97.4534C42.0228 98.3532 40.9742 98.844 39.46 98.844L39.46 100.844C41.4658 100.844 43.1306 100.161 44.3061 98.7146L42.7539 97.4534ZM39.46 98.844C37.951 98.844 36.8447 98.4538 36.0408 97.7647L34.7392 99.2832C35.9886 100.354 37.5956 100.844 39.46 100.844L39.46 98.844ZM36.0704 97.7912C35.175 96.9597 34.627 96.0302 34.3834 94.9949L32.4366 95.453C32.7797 96.9111 33.5516 98.1816 34.7095 99.2568L36.0704 97.7912ZM32.9244 94.3498C31.3589 95.2195 30.1371 96.739 29.202 98.7649L31.018 99.603C31.8429 97.8156 32.8211 96.6951 33.8956 96.0981L32.9244 94.3498ZM29.2085 98.7512C28.2607 100.726 27.79 102.855 27.79 105.124L29.79 105.124C29.79 103.14 30.1993 101.309 31.0115 99.6167L29.2085 98.7512ZM27.79 105.124C27.79 107.123 28.2708 109.103 29.2085 111.057L31.0115 110.191C30.1892 108.478 29.79 106.792 29.79 105.124L27.79 105.124ZM29.2085 111.057C30.1739 113.068 31.761 114.872 33.91 116.484L35.11 114.884C33.1523 113.416 31.8061 111.847 31.0115 110.191L29.2085 111.057ZM33.8961 116.473C36.0169 118.123 38.9038 119.416 42.4986 120.389L43.0214 118.459C39.5762 117.526 36.9631 116.325 35.1239 114.895L33.8961 116.473ZM42.4934 120.388C46.0566 121.373 50.4803 121.854 55.74 121.854L55.74 119.854C50.5864 119.854 46.3568 119.381 43.0266 118.46L42.4934 120.388ZM55.74 121.854C62.2532 121.854 67.5243 121.116 71.499 119.587L70.781 117.721C67.1291 119.125 62.1335 119.854 55.74 119.854L55.74 121.854ZM71.499 119.587C75.4221 118.078 78.3637 116.075 80.202 113.518L78.578 112.35C77.043 114.486 74.4846 116.296 70.781 117.721L71.499 119.587ZM80.2221 113.489C81.9429 110.907 82.81 108.075 82.81 105.014L80.81 105.014C80.81 107.673 80.0637 110.121 78.558 112.379L80.2221 113.489ZM82.81 105.014C82.81 101.949 81.9047 98.8826 80.1469 95.8255L78.4131 96.8224C80.0286 99.632 80.81 102.359 80.81 105.014L82.81 105.014ZM80.1469 95.8255C78.3248 92.6567 75.1982 90.117 70.895 88.1542L70.065 89.9738C74.1218 91.8243 76.8618 94.1246 78.4131 96.8224L80.1469 95.8255ZM71.4183 89.4097L72.1883 87.3197L70.3117 86.6283L69.5417 88.7183L71.4183 89.4097ZM70.9517 87.9285C73.1837 88.6259 75.4758 89.7848 77.8282 91.4244L78.9718 89.7836C76.4842 88.0498 74.0096 86.7887 71.5483 86.0195L70.9517 87.9285ZM77.8164 91.416C80.0367 93.0119 81.8858 95.0996 83.3603 97.6976L85.0997 96.7104C83.4942 93.8816 81.4566 91.5694 78.9836 89.792L77.8164 91.416ZM83.3603 97.6976C84.7949 100.225 85.54 103.381 85.54 107.214L87.54 107.214C87.54 103.127 86.7452 99.6095 85.0997 96.7104L83.3603 97.6976ZM85.54 107.214C85.54 111.579 84.4167 115.497 82.1777 118.995L83.8623 120.073C86.3166 116.238 87.54 111.943 87.54 107.214L85.54 107.214ZM82.1777 118.995C79.9378 122.495 76.7434 125.314 72.5568 127.443L73.4633 129.225C77.9299 126.954 81.4089 123.906 83.8623 120.073L82.1777 118.995ZM72.5748 127.434C68.3382 129.481 63.2867 130.524 57.39 130.524L57.39 132.524C63.52 132.524 68.8818 131.44 73.4452 129.234L72.5748 127.434ZM57.39 130.524C51.4945 130.524 46.3641 129.482 41.9737 127.428L41.1263 129.24C45.8293 131.44 51.2588 132.524 57.39 132.524L57.39 130.524ZM41.9799 127.431C37.5076 125.301 34.0611 122.373 31.6045 118.653L29.9355 119.755C32.6123 123.808 36.3524 126.967 41.1201 129.237L41.9799 127.431ZM31.5972 118.642C29.0769 114.932 27.81 110.693 27.81 105.894L25.81 105.894C25.81 111.068 27.1831 115.703 29.9428 119.766L31.5972 118.642ZM10.09 62.1879L10.09 61.1879L8.65586 61.1879L9.15165 62.5336L10.09 62.1879ZM28.46 62.1879L28.46 63.1879L29.46 63.1879L29.46 62.1879L28.46 62.1879ZM28.46 45.9079L28.46 44.9079L27.46 44.9079L27.46 45.9079L28.46 45.9079ZM30.66 45.9079L31.66 45.9079L31.66 44.9079L30.66 44.9079L30.66 45.9079ZM30.66 62.1879L29.66 62.1879L29.66 63.1879L30.66 63.1879L30.66 62.1879ZM80.49 60.3179L79.8232 59.5727L80.49 60.3179ZM79.94 49.4279L80.6157 48.6907L80.6082 48.6839L80.6006 48.6772L79.94 49.4279ZM70.81 45.2479L69.8399 45.0053L69.6031 45.9523L70.5441 46.2119L70.81 45.2479ZM71.36 43.0479L71.5299 42.0624L70.615 41.9047L70.3899 42.8054L71.36 43.0479ZM82.14 47.4479L81.54 48.2479L81.5465 48.2527L81.553 48.2575L82.14 47.4479ZM85.55 63.5079L84.6245 63.1293L84.617 63.1475L84.6102 63.1661L85.55 63.5079ZM82.91 67.7979L83.6012 68.5205L83.6202 68.5024L83.6382 68.4832L82.91 67.7979ZM76.86 71.2079L77.1025 72.178L77.1167 72.1745L77.1307 72.1705L76.86 71.2079ZM30.66 72.0879L30.66 71.0879L29.66 71.0879L29.66 72.0879L30.66 72.0879ZM30.66 82.6479L30.66 83.6479L31.66 83.6479L31.66 82.6479L30.66 82.6479ZM28.46 82.6479L27.46 82.6479L27.46 83.6479L28.46 83.6479L28.46 82.6479ZM28.46 72.0879L29.46 72.0879L29.46 71.0879L28.46 71.0879L28.46 72.0879ZM11.63 72.0879L10.6308 72.1279L10.6692 73.0879L11.63 73.0879L11.63 72.0879ZM11.19 66.8079L12.1816 66.6786L11.19 66.8079ZM10.09 63.1879L28.46 63.1879L28.46 61.1879L10.09 61.1879L10.09 63.1879ZM29.46 62.1879L29.46 45.9079L27.46 45.9079L27.46 62.1879L29.46 62.1879ZM28.46 46.9079L30.66 46.9079L30.66 44.9079L28.46 44.9079L28.46 46.9079ZM29.66 45.9079L29.66 62.1879L31.66 62.1879L31.66 45.9079L29.66 45.9079ZM30.66 63.1879L73.23 63.1879L73.23 61.1879L30.66 61.1879L30.66 63.1879ZM73.23 63.1879C76.7382 63.1879 79.478 62.5652 81.1568 61.0631L79.8232 59.5727C78.7153 60.5639 76.6151 61.1879 73.23 61.1879L73.23 63.1879ZM81.1568 61.0631C82.8 59.5929 83.58 57.5773 83.58 55.1479L81.58 55.1479C81.58 57.1185 80.9666 58.5496 79.8232 59.5727L81.1568 61.0631ZM83.58 55.1479C83.58 52.6419 82.5627 50.4754 80.6157 48.6907L79.2643 50.165C80.8373 51.607 81.58 53.2538 81.58 55.1479L83.58 55.1479ZM80.6006 48.6772C78.5955 46.9127 75.3757 45.47 71.0759 44.2839L70.5441 46.2119C74.751 47.3724 77.6178 48.7164 79.2794 50.1786L80.6006 48.6772ZM71.7801 45.4904L72.3301 43.2904L70.3899 42.8054L69.8399 45.0053L71.7801 45.4904ZM71.1901 44.0334C75.315 44.7445 78.754 46.1584 81.54 48.2479L82.74 46.6479C79.6594 44.3374 75.9117 42.8179 71.5299 42.0624L71.1901 44.0334ZM81.553 48.2575C84.1655 50.1515 85.54 53.1107 85.54 57.3479L87.54 57.3479C87.54 52.6384 85.9812 48.9976 82.727 46.6383L81.553 48.2575ZM85.54 57.3479C85.54 59.7628 85.219 61.676 84.6245 63.1293L86.4755 63.8865C87.201 62.1131 87.54 59.9196 87.54 57.3479L85.54 57.3479ZM84.6102 63.1661C84.0699 64.6521 83.2617 65.9651 82.1818 67.1125L83.6382 68.4832C84.9049 67.1373 85.8568 65.5903 86.4898 63.8496L84.6102 63.1661ZM82.2188 67.0753C80.6558 68.5702 78.7855 69.6276 76.5893 70.2452L77.1307 72.1705C79.6279 71.4682 81.7908 70.2522 83.6012 68.5205L82.2188 67.0753ZM76.6175 70.2378C74.3831 70.7963 71.3579 71.0879 67.51 71.0879L67.51 73.0879C71.4355 73.0879 74.6436 72.7928 77.1025 72.178L76.6175 70.2378ZM67.51 71.0879L30.66 71.0879L30.66 73.0879L67.51 73.0879L67.51 71.0879ZM29.66 72.0879L29.66 82.6479L31.66 82.6479L31.66 72.0879L29.66 72.0879ZM30.66 81.6479L28.46 81.6479L28.46 83.6479L30.66 83.6479L30.66 81.6479ZM29.46 82.6479L29.46 72.0879L27.46 72.0879L27.46 82.6479L29.46 82.6479ZM28.46 71.0879L11.63 71.0879L11.63 73.0879L28.46 73.0879L28.46 71.0879ZM12.6292 72.0479C12.5548 70.187 12.4058 68.3971 12.1816 66.6786L10.1984 66.9372C10.4142 68.592 10.5586 70.3221 10.6308 72.1279L12.6292 72.0479ZM12.1816 66.6786C11.9533 64.9285 11.5708 63.3147 11.0283 61.8422L9.15165 62.5336C9.63582 63.8478 9.98667 65.314 10.1984 66.9372L12.1816 66.6786ZM28.24 13.8412L27.333 13.42L28.24 13.8412ZM30.88 9.33117L31.6434 9.97711L31.6487 9.97079L31.654 9.96441L30.88 9.33117ZM26.92 4.93118L25.92 4.93118L25.92 5.8262L26.8096 5.92505L26.92 4.93118ZM26.92 2.40118L26.9912 1.40372L25.92 1.32718L25.92 2.40118L26.92 2.40118ZM34.29 2.73117L34.3163 1.7315L34.3156 1.7315L34.29 2.73117ZM45.62 2.84115L46.62 2.84115L46.62 1.84115L45.62 1.84115L45.62 2.84115ZM45.62 5.37118L45.7801 6.35827L46.62 6.22207L46.62 5.37118L45.62 5.37118ZM37.7 7.68118L38.0714 8.60965L38.0827 8.60513L38.0939 8.60031L37.7 7.68118ZM31.43 12.3012L32.2027 12.9359L32.2096 12.9275L32.2163 12.919L31.43 12.3012ZM31.1 26.8212L31.871 26.1843L31.8682 26.181L31.1 26.8212ZM43.09 27.3712L43.7232 28.1451L43.7321 28.1379L43.7408 28.1304L43.09 27.3712ZM47.49 22.2012L48.3265 22.7492L48.3332 22.7389L48.3396 22.7285L47.49 22.2012ZM51.89 15.2712L51.0512 14.7267L51.0504 14.7279L51.89 15.2712ZM60.14 4.60116L59.415 3.91241L60.14 4.60116ZM79.61 2.84115L80.2222 2.05044L79.61 2.84115ZM84.78 9.77117L83.8548 10.1508L83.8584 10.1592L84.78 9.77117ZM86.1 23.6312L85.1194 23.4351L85.1154 23.455L85.1122 23.4752L86.1 23.6312ZM85 27.7012L85.8944 28.1484L85.9152 28.1069L85.932 28.0636L85 27.7012ZM83.68 30.0112L84.4992 30.5846L84.5118 30.5666L84.5237 30.548L83.68 30.0112ZM82.14 34.1912L82.8471 33.4841L82.8263 33.4633L82.8044 33.4438L82.14 34.1912ZM85.77 35.5112L86.77 35.5112L86.77 34.6584L85.928 34.5237L85.77 35.5112ZM85.77 38.0412L85.7076 39.0392L86.77 39.1056L86.77 38.0412L85.77 38.0412ZM77.19 37.7112L77.2117 36.7114L77.19 37.7112ZM63.77 37.6012L62.77 37.6012L62.77 38.6012L63.77 38.6012L63.77 37.6012ZM63.77 35.0712L63.646 34.0789L62.77 34.1884L62.77 35.0712L63.77 35.0712ZM74.55 32.8712L74.2543 31.9159L74.55 32.8712ZM81.81 28.3612L82.5693 29.012L82.5761 29.004L82.5827 28.9959L81.81 28.3612ZM82.03 13.2912L81.2108 13.8646L81.2154 13.8712L81.2201 13.8777L82.03 13.2912ZM59.48 22.4212L60.3227 22.9596L60.3251 22.9558L59.48 22.4212ZM54.42 29.9012L55.2231 30.497L55.2276 30.4909L55.232 30.4848L54.42 29.9012ZM48.7 35.5112L49.248 36.3476L49.258 36.3411L49.2677 36.3344L48.7 35.5112ZM32.97 35.4012L32.3835 36.2111L32.3888 36.2149L32.97 35.4012ZM28.35 29.3512L29.284 28.994L29.2795 28.9822L29.2747 28.9704L28.35 29.3512ZM27.81 21.3212C27.81 18.492 28.2702 16.1507 29.147 14.2623L27.333 13.42C26.3031 15.6383 25.81 18.2837 25.81 21.3212L27.81 21.3212ZM29.147 14.2623C30.0879 12.2357 30.9233 10.8281 31.6434 9.97711L30.1166 8.68524C29.2233 9.7409 28.2987 11.34 27.333 13.42L29.147 14.2623ZM31.654 9.96441C32.2006 9.29632 32.6083 8.59143 32.7321 7.86233C32.8658 7.07492 32.6524 6.3407 32.1183 5.74719C31.6236 5.1976 30.9021 4.81943 30.0825 4.54623C29.2494 4.26855 28.2252 4.07004 27.0304 3.93728L26.8096 5.92505C27.9248 6.04898 28.7981 6.22629 29.45 6.4436C30.1154 6.6654 30.4663 6.9014 30.6317 7.08514C30.7576 7.22497 30.7916 7.34326 30.7604 7.52749C30.7192 7.77008 30.5494 8.156 30.106 8.69793L31.654 9.96441ZM27.92 4.93118L27.92 2.40118L25.92 2.40118L25.92 4.93118L27.92 4.93118ZM26.8488 3.39862C28.9218 3.54669 31.3945 3.65726 34.2644 3.73083L34.3156 1.7315C31.4655 1.65841 29.0248 1.54898 26.9912 1.40372L26.8488 3.39862ZM34.2637 3.73083C37.0631 3.8045 40.8498 3.84115 45.62 3.84115L45.62 1.84115C40.8569 1.84115 37.0902 1.8045 34.3163 1.7315L34.2637 3.73083ZM44.62 2.84115L44.62 5.37118L46.62 5.37118L46.62 2.84115L44.62 2.84115ZM45.4599 4.38406C42.6649 4.83731 39.9464 5.63043 37.3061 6.76202L38.0939 8.60031C40.5869 7.53189 43.1484 6.78503 45.7801 6.35827L45.4599 4.38406ZM37.3286 6.75268C34.6087 7.84067 32.372 9.48361 30.6437 11.6833L32.2163 12.919C33.7146 11.0121 35.658 9.57501 38.0714 8.60965L37.3286 6.75268ZM30.6573 11.6664C28.7908 13.9386 27.9 16.8573 27.9 20.3312L29.9 20.3312C29.9 17.205 30.6958 14.7704 32.2027 12.9359L30.6573 11.6664ZM27.9 20.3312C27.9 23.1018 28.6972 25.4999 30.3318 27.4614L31.8682 26.181C30.5694 24.6224 29.9 22.6938 29.9 20.3312L27.9 20.3312ZM30.329 27.458C31.9623 29.4351 34.3735 30.3512 37.37 30.3512L37.37 28.3512C34.7932 28.3512 33.0244 27.5805 31.871 26.1843L30.329 27.458ZM37.37 30.3512C39.787 30.3512 41.9208 29.6198 43.7232 28.1451L42.4568 26.5972C41.0325 27.7625 39.353 28.3512 37.37 28.3512L37.37 30.3512ZM43.7408 28.1304C45.3677 26.7359 46.8939 24.9357 48.3265 22.7492L46.6535 21.6531C45.2994 23.72 43.8923 25.3665 42.4392 26.6119L43.7408 28.1304ZM48.3396 22.7285C49.6558 20.6081 51.119 18.3034 52.7296 15.8144L51.0504 14.7279C49.4343 17.2256 47.9642 19.541 46.6404 21.6738L48.3396 22.7285ZM52.7288 15.8156C55.416 11.6758 58.129 8.16995 60.865 5.28991L59.415 3.91241C56.5777 6.89908 53.7906 10.5065 51.0512 14.7267L52.7288 15.8156ZM60.865 5.28991C63.4386 2.58087 66.8301 1.20117 71.14 1.20117L71.14 -0.798832C66.3566 -0.798832 62.4147 0.754818 59.415 3.91241L60.865 5.28991ZM71.14 1.20117C74.3317 1.20117 76.9289 2.03012 78.9978 3.63189L80.2222 2.05044C77.7445 0.132198 74.695 -0.798832 71.14 -0.798832L71.14 1.20117ZM78.9978 3.63189C81.1222 5.27658 82.7428 7.44021 83.8548 10.1507L85.7052 9.3916C84.4705 6.38211 82.6444 3.92575 80.2222 2.05044L78.9978 3.63189ZM83.8584 10.1592C84.9743 12.8096 85.54 15.7557 85.54 19.0112L87.54 19.0112C87.54 15.52 86.9324 12.3061 85.7016 9.38311L83.8584 10.1592ZM85.54 19.0112C85.54 20.5637 85.3989 22.0378 85.1194 23.4351L87.0806 23.8273C87.3878 22.2912 87.54 20.6852 87.54 19.0112L85.54 19.0112ZM85.1122 23.4752C84.9034 24.7976 84.5555 26.0851 84.068 27.3387L85.932 28.0636C86.4711 26.6772 86.8566 25.2514 87.0878 23.7871L85.1122 23.4752ZM84.1056 27.254C83.7565 27.952 83.3342 28.692 82.8363 29.4743L84.5237 30.548C85.0525 29.717 85.5101 28.917 85.8944 28.1484L84.1056 27.254ZM82.8608 29.4377C82.3603 30.1527 81.8231 30.869 81.2491 31.5865L82.8109 32.8359C83.4102 32.0867 83.9731 31.3363 84.4992 30.5846L82.8608 29.4377ZM81.2491 31.5865C80.8663 32.0651 80.5823 32.6496 80.619 33.3116C80.6566 33.9875 81.0157 34.5297 81.4756 34.9386L82.8044 33.4438C82.7039 33.3545 82.6562 33.2879 82.6348 33.2496C82.6158 33.2156 82.616 33.202 82.616 33.2007C82.6158 33.1979 82.6142 33.1724 82.637 33.1146C82.6612 33.0533 82.7114 32.9601 82.8109 32.8359L81.2491 31.5865ZM81.4329 34.8983C81.8708 35.3362 82.4716 35.6558 83.1458 35.901C83.8301 36.1498 84.6576 36.3459 85.612 36.4986L85.928 34.5237C85.0491 34.3831 84.3549 34.2125 83.8292 34.0214C83.2934 33.8265 82.9958 33.6328 82.8471 33.4841L81.4329 34.8983ZM84.77 35.5112L84.77 38.0412L86.77 38.0412L86.77 35.5112L84.77 35.5112ZM85.8324 37.0431C83.4678 36.8953 80.5933 36.7849 77.2117 36.7114L77.1683 38.7109C80.5333 38.7841 83.3789 38.8937 85.7076 39.0392L85.8324 37.0431ZM77.2117 36.7114C73.828 36.6378 69.3466 36.6012 63.77 36.6012L63.77 38.6012C69.3401 38.6012 73.8053 38.6378 77.1683 38.7109L77.2117 36.7114ZM64.77 37.6012L64.77 35.0712L62.77 35.0712L62.77 37.6012L64.77 37.6012ZM63.894 36.0634C68.0434 35.5448 71.6965 34.8012 74.8457 33.8264L74.2543 31.9159C71.2435 32.8478 67.7099 33.5709 63.646 34.0789L63.894 36.0634ZM74.8457 33.8264C78.0708 32.8282 80.6647 31.2339 82.5693 29.012L81.0507 27.7104C79.4353 29.5951 77.1892 31.0075 74.2543 31.9159L74.8457 33.8264ZM82.5827 28.9959C84.4635 26.7062 85.34 23.5921 85.34 19.7812L83.34 19.7812C83.34 23.3036 82.5298 25.9095 81.0373 27.7264L82.5827 28.9959ZM85.34 19.7812C85.34 17.3322 84.479 14.9681 82.8399 12.7046L81.2201 13.8777C82.661 15.8676 83.34 17.8301 83.34 19.7812L85.34 19.7812ZM82.8492 12.7177C81.0479 10.1443 77.9476 8.99118 73.89 8.99118L73.89 10.9912C77.6057 10.9912 79.9321 12.038 81.2108 13.8646L82.8492 12.7177ZM73.89 8.99118C70.3864 8.99118 67.4681 10.2805 65.2174 12.8527L66.7226 14.1697C68.5786 12.0485 70.9402 10.9912 73.89 10.9912L73.89 8.99118ZM65.2174 12.8527C63.1204 15.2492 60.9267 18.2641 58.6349 21.8865L60.3251 22.9558C62.58 19.3916 64.7129 16.4664 66.7226 14.1697L65.2174 12.8527ZM58.6373 21.8828C56.9596 24.5087 55.2832 26.9868 53.608 29.3175L55.232 30.4848C56.9302 28.1222 58.627 25.6136 60.3227 22.9596L58.6373 21.8828ZM53.6169 29.3053C51.9894 31.4989 50.1603 33.2893 48.1323 34.688L49.2677 36.3344C51.493 34.7997 53.4772 32.8501 55.2231 30.497L53.6169 29.3053ZM48.152 34.6747C46.216 35.9431 43.8481 36.6012 41 36.6012L41 38.6012C44.1652 38.6012 46.9307 37.8659 49.248 36.3476L48.152 34.6747ZM41 36.6012C37.8446 36.6012 35.3896 35.9005 33.5512 34.5874L32.3888 36.2149C34.6571 37.8351 37.5553 38.6012 41 38.6012L41 36.6012ZM33.5565 34.5912C31.59 33.1672 30.1692 31.3091 29.284 28.994L27.4159 29.7083C28.4374 32.3799 30.0967 34.5551 32.3835 36.2111L33.5565 34.5912ZM29.2747 28.9704C28.3007 26.6051 27.81 24.0586 27.81 21.3212L25.81 21.3212C25.81 24.3038 26.3459 27.1106 27.4253 29.7319L29.2747 28.9704Z" fill="#1A2236"/>
</svg>
